<svg xmlns="http://www.w3.org/2000/svg"  viewBox="0 0 64 64" width="96px" height="96px"><path d="M 13.978516 11.755859 C 13.247312 11.818906 12.582469 12.285406 12.292969 13.003906 C 10.154969 18.320906 10.747484 23.309188 11.146484 25.367188 C 9.1924844 28.274187 8.1269531 31.749 8.1269531 35.25 C 8.1269531 39.993 9.9834688 44.451687 13.355469 47.804688 C 16.529469 50.960688 21.872703 53 26.970703 53 L 37.279297 53 C 42.377297 53 47.722484 50.960687 50.896484 47.804688 C 54.268484 44.451687 56.125 39.993 56.125 35.25 C 56.125 31.463 54.895484 27.760703 52.646484 24.720703 C 52.950484 22.762703 53.291359 18.235516 51.193359 13.228516 C 50.796359 12.281516 49.747672 11.784891 48.763672 12.087891 C 43.609672 13.664891 40.359406 16.247219 38.941406 17.574219 C 38.816406 17.555219 38.691406 17.537531 38.566406 17.519531 C 34.847406 16.991531 29.678125 16.990578 25.703125 17.517578 C 25.408125 17.557578 25.113312 17.597578 24.820312 17.642578 C 23.487312 16.144578 20.494703 13.554031 14.720703 11.832031 C 14.473453 11.758281 14.22225 11.734844 13.978516 11.755859 z M 24.242188 32 L 40.259766 32 C 41.749766 32 43.149078 32.580766 44.205078 33.634766 C 45.259078 34.687766 45.839844 36.089078 45.839844 37.580078 L 45.839844 46.654297 C 43.408844 48.088297 40.217297 49 37.279297 49 L 26.970703 49 C 24.118703 49 21.036766 48.136438 18.634766 46.773438 C 18.699766 46.321438 18.662109 37.580078 18.662109 37.580078 C 18.662109 36.090078 19.242875 34.688766 20.296875 33.634766 C 21.335875 32.596766 22.772188 32 24.242188 32 z M 24.232422 36 C 22.835422 36 21.701172 37.792 21.701172 40 C 21.701172 42.208 22.835422 44 24.232422 44 C 25.629422 44 26.763672 42.208 26.763672 40 C 26.763672 37.792 25.629422 36 24.232422 36 z M 40.320312 36 C 38.923313 36 37.789062 37.792 37.789062 40 C 37.789062 42.208 38.923313 44 40.320312 44 C 41.717312 44 42.851562 42.208 42.851562 40 C 42.851563 37.792 41.717312 36 40.320312 36 z"/></svg>